<svg xmlns="http://www.w3.org/2000/svg" version="1.1" viewBox="0 -5 180 165.60001" xmlns:svg="http://www.w3.org/2000/svg" width="180" height="165.60001"><metadata><rdf:RDF xmlns:rdf="http://www.w3.org/1999/02/22-rdf-syntax-ns#" xmlns:dc="http://purl.org/dc/elements/1.1/"><rdf:Description><dc:creator>RealFaviconGenerator</dc:creator><dc:source>https://realfavicongenerator.net</dc:source></rdf:Description></rdf:RDF></metadata><path d="M 176.4,-5 H 3.6 C 1.6128,-5 0,-3.3872 0,-1.4 V 157 c 0,1.9908 1.6128,3.6 3.6,3.6 h 172.8 c 1.9908,0 3.6,-1.6092 3.6,-3.6 V -1.4 c 0,-1.9872 -1.6092,-3.6 -3.6,-3.6 z m -91.0548,85.3452 -36,36 c -0.702,0.702 -1.6236,1.0548 -2.5452,1.0548 -0.9216,0 -1.8432,-0.3528 -2.5452,-1.0548 -1.4076,-1.4076 -1.4076,-3.6828 0,-5.0904 L 77.7096,77.8 44.2548,44.3452 c -1.4076,-1.4076 -1.4076,-3.6828 0,-5.0904 1.4076,-1.4076 3.6828,-1.4076 5.0904,0 l 36,36 c 1.4076,1.4076 1.4076,3.6828 0,5.0904 z M 133.2,117.4 h -36 c -1.9908,0 -3.6,-1.6092 -3.6,-3.6 0,-1.9908 1.6092,-3.6 3.6,-3.6 h 36 c 1.9908,0 3.6,1.6092 3.6,3.6 0,1.9908 -1.6092,3.6 -3.6,3.6 z" fill="currentColor" stroke-width="3.5"></path></svg>